<?xml version="1.0" standalone="no"?><!DOCTYPE svg PUBLIC "-//W3C//DTD SVG 1.1//EN" "http://www.w3.org/Graphics/SVG/1.1/DTD/svg11.dtd"><svg t="1540005901243" class="icon" style="" viewBox="0 0 1024 1024" version="1.1" xmlns="http://www.w3.org/2000/svg" p-id="3015" xmlns:xlink="http://www.w3.org/1999/xlink" width="200" height="200"><defs><style type="text/css"></style></defs><path d="M409.6 341.333333L238.933333 512l68.266667 68.266667L477.866667 409.6v-34.133333l34.133333-34.133334 34.133333 34.133334V409.6l170.666667 170.666667 68.266667-68.266667L614.4 341.333333h-34.133333L546.133333 307.2l34.133334-34.133333H614.4l170.666667-170.666667-68.266667-68.266667L546.133333 204.8v34.133333l-34.133333 34.133334-34.133333-34.133334V204.8L307.2 34.133333l-68.266667 68.266667L409.6 273.066667h34.133333l34.133334 34.133333-34.133334 34.133333H409.6z m375.466667 546.133334h-68.266667l-68.266667-273.066667-136.533333-136.533333-136.533333 136.533333-68.266667 273.066667h-68.266667a34.133333 34.133333 0 1 0 0 68.266666h546.133334a34.133333 34.133333 0 0 0 0-68.266666zM546.133333 887.466667H477.866667v-102.536534c0-18.773333 15.223467-33.9968 33.9968-33.9968 18.909867 0 34.269867 15.36 34.269866 34.269867V887.466667z" fill="#1296db" p-id="3016"></path></svg>